<?xml version="1.0" encoding="UTF-8"?>
<svg xmlns="http://www.w3.org/2000/svg" xmlns:xlink="http://www.w3.org/1999/xlink" width="40px" height="40px" viewBox="0 0 40 40" version="1.1">
<defs>
<filter id="alpha" filterUnits="objectBoundingBox" x="0%" y="0%" width="100%" height="100%">
  <feColorMatrix type="matrix" in="SourceGraphic" values="0 0 0 0 1 0 0 0 0 1 0 0 0 0 1 0 0 0 1 0"/>
</filter>
<mask id="mask0">
  <g filter="url(#alpha)">
<rect x="0" y="0" width="40" height="40" style="fill:rgb(0%,0%,0%);fill-opacity:0.992157;stroke:none;"/>
  </g>
</mask>
<clipPath id="clip1">
  <rect x="0" y="0" width="40" height="40"/>
</clipPath>
<g id="surface6" clip-path="url(#clip1)">
<path style="fill-rule:nonzero;fill:rgb(1.176471%,1.176471%,1.176471%);fill-opacity:1;stroke-width:1;stroke-linecap:butt;stroke-linejoin:miter;stroke:rgb(1.176471%,1.176471%,1.176471%);stroke-opacity:1;stroke-miterlimit:4;" d="M 6 6 L 42 6 L 42 42.501562 L 40.5 44.001562 L 7.5 44.001562 L 6 42.501562 Z M 8.001563 8.001563 L 8.001563 39.998438 L 39.998438 39.998438 L 39.998438 8.001563 Z M 8.001563 8.001563 " transform="matrix(0.833333,0,0,0.833333,0,0)"/>
</g>
<mask id="mask1">
  <g filter="url(#alpha)">
<rect x="0" y="0" width="40" height="40" style="fill:rgb(0%,0%,0%);fill-opacity:0.992157;stroke:none;"/>
  </g>
</mask>
<clipPath id="clip2">
  <rect x="0" y="0" width="40" height="40"/>
</clipPath>
<g id="surface9" clip-path="url(#clip2)">
<path style="fill-rule:nonzero;fill:rgb(1.176471%,1.176471%,1.176471%);fill-opacity:1;stroke-width:1;stroke-linecap:butt;stroke-linejoin:miter;stroke:rgb(1.176471%,1.176471%,1.176471%);stroke-opacity:1;stroke-miterlimit:4;" d="M 28.5 9.998437 C 33.43125 10.734375 36.932812 12.9 39 16.5 L 36 21 C 32.732813 19.8 31.734375 21.3 33 25.5 C 31.93125 28.701562 29.26875 29.86875 24.998437 29.001562 C 25.865625 33.267187 24.698438 35.934375 21.501562 36.998438 L 17.498437 38.001562 L 9 31.5 L 15 25.5 L 15 23.498437 L 18.501562 18.998437 C 22.101562 20.26875 23.601562 19.767187 23.001562 17.498437 L 23.001562 15.501562 L 26.498437 11.001563 Z M 27.998437 12 C 27.998437 15.332812 29.667187 17.667188 33 18.998437 C 35.667187 19.66875 36.998438 18.998437 36.998438 17.001562 C 35.001562 13.66875 32.001562 12 27.998437 12 Z M 26.001562 14.001563 L 24 15.998437 L 24 18.998437 L 30 26.001562 L 32.001562 24.998437 L 27.998437 15.998437 Z M 20.001562 20.001562 C 20.667188 23.334375 22.66875 26.001562 26.001562 27.998437 L 27.998437 27.998437 L 26.001562 24 Z M 18 21.998437 L 15.998437 24 C 16.66875 28.66875 18.665625 32.001562 21.998437 33.998438 L 24 33 L 20.001562 24 Z M 14.001563 29.001562 L 11.001563 32.001562 L 18 36 L 20.001562 36 L 18 32.001562 C 18 29.334375 16.66875 28.33125 14.001563 29.001562 Z M 14.001563 29.001562 " transform="matrix(0.833333,0,0,0.833333,0,0)"/>
</g>
</defs>
<g id="surface1">
<path style="fill-rule:nonzero;fill:rgb(87.058824%,87.058824%,87.058824%);fill-opacity:1;stroke-width:1;stroke-linecap:butt;stroke-linejoin:miter;stroke:rgb(87.058824%,87.058824%,87.058824%);stroke-opacity:1;stroke-miterlimit:4;" d="M 24.501562 12 L 22.5 15 Z M 24.501562 12 " transform="matrix(0.833333,0,0,0.833333,0,0)"/>
<path style="fill-rule:nonzero;fill:rgb(87.058824%,87.058824%,87.058824%);fill-opacity:1;stroke-width:1;stroke-linecap:butt;stroke-linejoin:miter;stroke:rgb(87.058824%,87.058824%,87.058824%);stroke-opacity:1;stroke-miterlimit:4;" d="M 30.501562 15.998437 L 31.5 18 Z M 30.501562 15.998437 " transform="matrix(0.833333,0,0,0.833333,0,0)"/>
<path style="fill-rule:nonzero;fill:rgb(87.058824%,87.058824%,87.058824%);fill-opacity:1;stroke-width:1;stroke-linecap:butt;stroke-linejoin:miter;stroke:rgb(87.058824%,87.058824%,87.058824%);stroke-opacity:1;stroke-miterlimit:4;" d="M 15.501562 21 L 14.498437 23.001562 Z M 15.501562 21 " transform="matrix(0.833333,0,0,0.833333,0,0)"/>
<path style="fill-rule:nonzero;fill:rgb(87.058824%,87.058824%,87.058824%);fill-opacity:1;stroke-width:1;stroke-linecap:butt;stroke-linejoin:miter;stroke:rgb(87.058824%,87.058824%,87.058824%);stroke-opacity:1;stroke-miterlimit:4;" d="M 25.5 33 L 24.501562 35.001562 Z M 25.5 33 " transform="matrix(0.833333,0,0,0.833333,0,0)"/>
<path style="fill-rule:nonzero;fill:rgb(99.607843%,99.607843%,99.607843%);fill-opacity:1;stroke-width:1;stroke-linecap:butt;stroke-linejoin:miter;stroke:rgb(99.607843%,99.607843%,99.607843%);stroke-opacity:1;stroke-miterlimit:4;" d="M 30.501562 24 L 29.498437 26.001562 Z M 30.501562 24 " transform="matrix(0.833333,0,0,0.833333,0,0)"/>
<path style="fill-rule:nonzero;fill:rgb(99.607843%,99.607843%,99.607843%);fill-opacity:1;stroke-width:1;stroke-linecap:butt;stroke-linejoin:miter;stroke:rgb(99.607843%,99.607843%,99.607843%);stroke-opacity:1;stroke-miterlimit:4;" d="M 22.5 32.001562 L 21.501562 33.998438 Z M 22.5 32.001562 " transform="matrix(0.833333,0,0,0.833333,0,0)"/>
<path style="fill-rule:nonzero;fill:rgb(100%,100%,100%);fill-opacity:1;stroke-width:1;stroke-linecap:butt;stroke-linejoin:miter;stroke:rgb(100%,100%,100%);stroke-opacity:1;stroke-miterlimit:4;" d="M 8.001563 8.001563 L 39.998438 8.001563 L 39.998438 38.498438 L 38.498438 39.998438 L 9.501563 39.998438 L 8.001563 38.498438 Z M 27 9.998437 C 23.001562 11.334375 21.332812 14.001563 21.998437 18 C 18 17.334375 15.332812 18.998437 14.001563 23.001562 C 14.667187 25.66875 14.334375 26.667188 12.998437 26.001562 L 9 30.998437 L 9 33.998438 L 15.998437 38.001562 L 21.998437 38.001562 C 25.33125 36.665625 26.667188 33.998438 26.001562 30 C 30 30.665625 32.667187 29.334375 33.998438 26.001562 C 32.667187 22.66875 33.332812 21.332812 36 21.998437 L 39 18 L 39 14.001563 L 33 9.998437 Z M 27 9.998437 " transform="matrix(0.833333,0,0,0.833333,0,0)"/>
<path style="fill-rule:nonzero;fill:rgb(100%,100%,100%);fill-opacity:1;stroke-width:1;stroke-linecap:butt;stroke-linejoin:miter;stroke:rgb(100%,100%,100%);stroke-opacity:1;stroke-miterlimit:4;" d="M 29.498437 12.998437 L 36 16.5 L 32.498438 18 Z M 29.498437 12.998437 " transform="matrix(0.833333,0,0,0.833333,0,0)"/>
<path style="fill-rule:nonzero;fill:rgb(100%,100%,100%);fill-opacity:1;stroke-width:1;stroke-linecap:butt;stroke-linejoin:miter;stroke:rgb(100%,100%,100%);stroke-opacity:1;stroke-miterlimit:4;" d="M 26.498437 15 L 30.998437 23.498437 C 30 25.5 29.001562 25.5 27.998437 23.498437 L 24.998437 16.5 Z M 26.498437 15 " transform="matrix(0.833333,0,0,0.833333,0,0)"/>
<path style="fill-rule:nonzero;fill:rgb(100%,100%,100%);fill-opacity:1;stroke-width:1;stroke-linecap:butt;stroke-linejoin:miter;stroke:rgb(100%,100%,100%);stroke-opacity:1;stroke-miterlimit:4;" d="M 21.501562 21 L 24.998437 23.498437 L 26.001562 26.498437 L 21.998437 23.498437 Z M 21.501562 21 " transform="matrix(0.833333,0,0,0.833333,0,0)"/>
<path style="fill-rule:nonzero;fill:rgb(100%,100%,100%);fill-opacity:1;stroke-width:1;stroke-linecap:butt;stroke-linejoin:miter;stroke:rgb(100%,100%,100%);stroke-opacity:1;stroke-miterlimit:4;" d="M 18.501562 23.001562 L 23.001562 31.5 C 21.998437 33.501562 21 33.501562 20.001562 31.5 L 17.001562 24.501562 Z M 18.501562 23.001562 " transform="matrix(0.833333,0,0,0.833333,0,0)"/>
<path style="fill-rule:nonzero;fill:rgb(100%,100%,100%);fill-opacity:1;stroke-width:1;stroke-linecap:butt;stroke-linejoin:miter;stroke:rgb(100%,100%,100%);stroke-opacity:1;stroke-miterlimit:4;" d="M 13.5 30 L 17.001562 31.5 L 18 34.5 L 16.5 33.998438 L 12 31.5 Z M 13.5 30 " transform="matrix(0.833333,0,0,0.833333,0,0)"/>
<use xlink:href="#surface6" mask="url(#mask0)"/>
<use xlink:href="#surface9" mask="url(#mask1)"/>
<path style="fill-rule:nonzero;fill:rgb(45.09804%,45.09804%,45.09804%);fill-opacity:1;stroke-width:1;stroke-linecap:butt;stroke-linejoin:miter;stroke:rgb(45.09804%,45.09804%,45.09804%);stroke-opacity:1;stroke-miterlimit:4;" d="M 25.5 14.001563 L 24.501562 15.998437 Z M 25.5 14.001563 " transform="matrix(0.833333,0,0,0.833333,0,0)"/>
<path style="fill-rule:nonzero;fill:rgb(45.09804%,45.09804%,45.09804%);fill-opacity:1;stroke-width:1;stroke-linecap:butt;stroke-linejoin:miter;stroke:rgb(45.09804%,45.09804%,45.09804%);stroke-opacity:1;stroke-miterlimit:4;" d="M 37.5 14.001563 L 38.498438 15.998437 Z M 37.5 14.001563 " transform="matrix(0.833333,0,0,0.833333,0,0)"/>
<path style="fill-rule:nonzero;fill:rgb(45.09804%,45.09804%,45.09804%);fill-opacity:1;stroke-width:1;stroke-linecap:butt;stroke-linejoin:miter;stroke:rgb(45.09804%,45.09804%,45.09804%);stroke-opacity:1;stroke-miterlimit:4;" d="M 35.498438 15 C 37.5 15.998437 37.5 17.001562 35.498438 18 Z M 35.498438 15 " transform="matrix(0.833333,0,0,0.833333,0,0)"/>
<path style="fill-rule:nonzero;fill:rgb(45.09804%,45.09804%,45.09804%);fill-opacity:1;stroke-width:1;stroke-linecap:butt;stroke-linejoin:miter;stroke:rgb(45.09804%,45.09804%,45.09804%);stroke-opacity:1;stroke-miterlimit:4;" d="M 22.5 17.001562 L 23.001562 18.998437 L 18.998437 18.501562 Z M 22.5 17.001562 " transform="matrix(0.833333,0,0,0.833333,0,0)"/>
<path style="fill-rule:nonzero;fill:rgb(45.09804%,45.09804%,45.09804%);fill-opacity:1;stroke-width:1;stroke-linecap:butt;stroke-linejoin:miter;stroke:rgb(45.09804%,45.09804%,45.09804%);stroke-opacity:1;stroke-miterlimit:4;" d="M 24.501562 18 L 25.5 20.001562 Z M 24.501562 18 " transform="matrix(0.833333,0,0,0.833333,0,0)"/>
<path style="fill-rule:nonzero;fill:rgb(45.09804%,45.09804%,45.09804%);fill-opacity:1;stroke-width:1;stroke-linecap:butt;stroke-linejoin:miter;stroke:rgb(45.09804%,45.09804%,45.09804%);stroke-opacity:1;stroke-miterlimit:4;" d="M 37.5 18 L 36.501562 20.001562 Z M 37.5 18 " transform="matrix(0.833333,0,0,0.833333,0,0)"/>
<path style="fill-rule:nonzero;fill:rgb(45.09804%,45.09804%,45.09804%);fill-opacity:1;stroke-width:1;stroke-linecap:butt;stroke-linejoin:miter;stroke:rgb(45.09804%,45.09804%,45.09804%);stroke-opacity:1;stroke-miterlimit:4;" d="M 17.498437 18.998437 L 16.5 21 Z M 17.498437 18.998437 " transform="matrix(0.833333,0,0,0.833333,0,0)"/>
<path style="fill-rule:nonzero;fill:rgb(45.09804%,45.09804%,45.09804%);fill-opacity:1;stroke-width:1;stroke-linecap:butt;stroke-linejoin:miter;stroke:rgb(45.09804%,45.09804%,45.09804%);stroke-opacity:1;stroke-miterlimit:4;" d="M 20.001562 20.001562 L 21.998437 20.498437 L 20.001562 21.501562 Z M 20.001562 20.001562 " transform="matrix(0.833333,0,0,0.833333,0,0)"/>
<path style="fill-rule:nonzero;fill:rgb(45.09804%,45.09804%,45.09804%);fill-opacity:1;stroke-width:1;stroke-linecap:butt;stroke-linejoin:miter;stroke:rgb(45.09804%,45.09804%,45.09804%);stroke-opacity:1;stroke-miterlimit:4;" d="M 33 21 L 35.001562 21.501562 L 33.501562 24.998437 Z M 33 21 " transform="matrix(0.833333,0,0,0.833333,0,0)"/>
<path style="fill-rule:nonzero;fill:rgb(45.09804%,45.09804%,45.09804%);fill-opacity:1;stroke-width:1;stroke-linecap:butt;stroke-linejoin:miter;stroke:rgb(45.09804%,45.09804%,45.09804%);stroke-opacity:1;stroke-miterlimit:4;" d="M 17.498437 21.998437 L 16.5 24 Z M 17.498437 21.998437 " transform="matrix(0.833333,0,0,0.833333,0,0)"/>
<path style="fill-rule:nonzero;fill:rgb(45.09804%,45.09804%,45.09804%);fill-opacity:1;stroke-width:1;stroke-linecap:butt;stroke-linejoin:miter;stroke:rgb(45.09804%,45.09804%,45.09804%);stroke-opacity:1;stroke-miterlimit:4;" d="M 27.501562 23.001562 L 28.5 24.998437 Z M 27.501562 23.001562 " transform="matrix(0.833333,0,0,0.833333,0,0)"/>
<path style="fill-rule:nonzero;fill:rgb(45.09804%,45.09804%,45.09804%);fill-opacity:1;stroke-width:1;stroke-linecap:butt;stroke-linejoin:miter;stroke:rgb(45.09804%,45.09804%,45.09804%);stroke-opacity:1;stroke-miterlimit:4;" d="M 31.5 24 L 30.501562 26.001562 Z M 31.5 24 " transform="matrix(0.833333,0,0,0.833333,0,0)"/>
<path style="fill-rule:nonzero;fill:rgb(45.09804%,45.09804%,45.09804%);fill-opacity:1;stroke-width:1;stroke-linecap:butt;stroke-linejoin:miter;stroke:rgb(45.09804%,45.09804%,45.09804%);stroke-opacity:1;stroke-miterlimit:4;" d="M 14.498437 24.998437 L 10.5 30 Z M 14.498437 24.998437 " transform="matrix(0.833333,0,0,0.833333,0,0)"/>
<path style="fill-rule:nonzero;fill:rgb(45.09804%,45.09804%,45.09804%);fill-opacity:1;stroke-width:1;stroke-linecap:butt;stroke-linejoin:miter;stroke:rgb(45.09804%,45.09804%,45.09804%);stroke-opacity:1;stroke-miterlimit:4;" d="M 32.498438 26.001562 L 30.501562 29.001562 Z M 32.498438 26.001562 " transform="matrix(0.833333,0,0,0.833333,0,0)"/>
<path style="fill-rule:nonzero;fill:rgb(45.09804%,45.09804%,45.09804%);fill-opacity:1;stroke-width:1;stroke-linecap:butt;stroke-linejoin:miter;stroke:rgb(45.09804%,45.09804%,45.09804%);stroke-opacity:1;stroke-miterlimit:4;" d="M 25.5 27 L 27.998437 27.501562 L 25.5 27.998437 Z M 25.5 27 " transform="matrix(0.833333,0,0,0.833333,0,0)"/>
<path style="fill-rule:nonzero;fill:rgb(45.09804%,45.09804%,45.09804%);fill-opacity:1;stroke-width:1;stroke-linecap:butt;stroke-linejoin:miter;stroke:rgb(45.09804%,45.09804%,45.09804%);stroke-opacity:1;stroke-miterlimit:4;" d="M 15.501562 29.001562 L 17.498437 32.001562 Z M 15.501562 29.001562 " transform="matrix(0.833333,0,0,0.833333,0,0)"/>
<path style="fill-rule:nonzero;fill:rgb(45.09804%,45.09804%,45.09804%);fill-opacity:1;stroke-width:1;stroke-linecap:butt;stroke-linejoin:miter;stroke:rgb(45.09804%,45.09804%,45.09804%);stroke-opacity:1;stroke-miterlimit:4;" d="M 24.998437 29.001562 L 29.001562 29.498437 L 26.001562 30 L 25.5 33 Z M 24.998437 29.001562 " transform="matrix(0.833333,0,0,0.833333,0,0)"/>
<path style="fill-rule:nonzero;fill:rgb(45.09804%,45.09804%,45.09804%);fill-opacity:1;stroke-width:1;stroke-linecap:butt;stroke-linejoin:miter;stroke:rgb(45.09804%,45.09804%,45.09804%);stroke-opacity:1;stroke-miterlimit:4;" d="M 12.501563 30 L 12.501563 33 C 10.5 32.001562 10.5 30.998437 12.501563 30 Z M 12.501563 30 " transform="matrix(0.833333,0,0,0.833333,0,0)"/>
<path style="fill-rule:nonzero;fill:rgb(45.09804%,45.09804%,45.09804%);fill-opacity:1;stroke-width:1;stroke-linecap:butt;stroke-linejoin:miter;stroke:rgb(45.09804%,45.09804%,45.09804%);stroke-opacity:1;stroke-miterlimit:4;" d="M 19.5 30.998437 L 20.498437 33 Z M 19.5 30.998437 " transform="matrix(0.833333,0,0,0.833333,0,0)"/>
<path style="fill-rule:nonzero;fill:rgb(45.09804%,45.09804%,45.09804%);fill-opacity:1;stroke-width:1;stroke-linecap:butt;stroke-linejoin:miter;stroke:rgb(45.09804%,45.09804%,45.09804%);stroke-opacity:1;stroke-miterlimit:4;" d="M 9.501563 32.001562 L 10.5 33.998438 Z M 9.501563 32.001562 " transform="matrix(0.833333,0,0,0.833333,0,0)"/>
<path style="fill-rule:nonzero;fill:rgb(45.09804%,45.09804%,45.09804%);fill-opacity:1;stroke-width:1;stroke-linecap:butt;stroke-linejoin:miter;stroke:rgb(45.09804%,45.09804%,45.09804%);stroke-opacity:1;stroke-miterlimit:4;" d="M 23.498437 32.001562 L 22.5 33.998438 Z M 23.498437 32.001562 " transform="matrix(0.833333,0,0,0.833333,0,0)"/>
<path style="fill-rule:nonzero;fill:rgb(45.09804%,45.09804%,45.09804%);fill-opacity:1;stroke-width:1;stroke-linecap:butt;stroke-linejoin:miter;stroke:rgb(45.09804%,45.09804%,45.09804%);stroke-opacity:1;stroke-miterlimit:4;" d="M 23.498437 35.001562 L 22.5 36.998438 Z M 23.498437 35.001562 " transform="matrix(0.833333,0,0,0.833333,0,0)"/>
</g>
</svg>
